<mxfile host="app.diagrams.net" modified="2022-04-06T22:16:10.158Z" agent="5.0 (Macintosh; Intel Mac OS X 10_15_7) AppleWebKit/537.36 (KHTML, like Gecko) Chrome/99.0.4844.84 Safari/537.36" etag="YdV-T_UerGAMpyVENk4u" version="17.4.0" type="github">
  <diagram id="UW2Let9FedXbePVIwO7e" name="Page-1">
    <mxGraphModel dx="2307" dy="1293" grid="1" gridSize="15" guides="1" tooltips="1" connect="1" arrows="1" fold="1" page="1" pageScale="1" pageWidth="850" pageHeight="1100" math="0" shadow="1">
      <root>
        <mxCell id="0" />
        <mxCell id="1" parent="0" />
        <mxCell id="GJOkn2DgcXXOF6PlL42Y-4" value="RNI 4.9 /4.10 service" style="swimlane;rounded=1;dashed=1;fillColor=#f5f5f5;gradientColor=#b3b3b3;strokeColor=#666666;swimlaneFillColor=#E6E6E6;" parent="1" vertex="1">
          <mxGeometry x="1395" y="60" width="150" height="387.5" as="geometry" />
        </mxCell>
        <mxCell id="GJOkn2DgcXXOF6PlL42Y-71" value="POST edit-threshold" style="text;strokeColor=#23445d;fillColor=#bac8d3;align=left;verticalAlign=middle;spacingLeft=4;spacingRight=4;overflow=hidden;points=[[0,0.5],[1,0.5]];portConstraint=eastwest;rotatable=0;rounded=1;" parent="GJOkn2DgcXXOF6PlL42Y-4" vertex="1">
          <mxGeometry x="15" y="88.5" width="120" height="46.5" as="geometry" />
        </mxCell>
        <mxCell id="GJOkn2DgcXXOF6PlL42Y-3" value="SA-RNI Service" style="swimlane;rounded=1;dashed=1;fillColor=#fad7ac;strokeColor=#b46504;swimlaneFillColor=#CDBFC7;gradientColor=#ffffff;" parent="1" vertex="1">
          <mxGeometry x="990" y="59" width="270" height="481" as="geometry" />
        </mxCell>
        <mxCell id="GJOkn2DgcXXOF6PlL42Y-16" value="GET device-config-s Poll/Callback" style="swimlane;fontStyle=0;childLayout=stackLayout;horizontal=1;startSize=30;horizontalStack=0;resizeParent=1;resizeParentMax=0;resizeLast=0;collapsible=1;marginBottom=0;rounded=1;" parent="GJOkn2DgcXXOF6PlL42Y-3" vertex="1">
          <mxGeometry x="22.5" y="376" width="232.5" height="90" as="geometry" />
        </mxCell>
        <mxCell id="GJOkn2DgcXXOF6PlL42Y-17" value="RQ: deviceID+InputID" style="text;strokeColor=none;fillColor=none;align=left;verticalAlign=middle;spacingLeft=4;spacingRight=4;overflow=hidden;points=[[0,0.5],[1,0.5]];portConstraint=eastwest;rotatable=0;rounded=1;" parent="GJOkn2DgcXXOF6PlL42Y-16" vertex="1">
          <mxGeometry y="30" width="232.5" height="30" as="geometry" />
        </mxCell>
        <mxCell id="GJOkn2DgcXXOF6PlL42Y-18" value="RS: (*) cat:high; psi:56; dur: 5 mins" style="text;strokeColor=none;fillColor=none;align=left;verticalAlign=middle;spacingLeft=4;spacingRight=4;overflow=hidden;points=[[0,0.5],[1,0.5]];portConstraint=eastwest;rotatable=0;rounded=1;" parent="GJOkn2DgcXXOF6PlL42Y-16" vertex="1">
          <mxGeometry y="60" width="232.5" height="30" as="geometry" />
        </mxCell>
        <mxCell id="GJOkn2DgcXXOF6PlL42Y-19" value="GET current-config" style="text;strokeColor=#23445d;fillColor=#bac8d3;align=left;verticalAlign=middle;spacingLeft=4;spacingRight=4;overflow=hidden;points=[[0,0.5],[1,0.5]];portConstraint=eastwest;rotatable=0;rounded=1;" parent="GJOkn2DgcXXOF6PlL42Y-3" vertex="1">
          <mxGeometry x="420" y="311.5" width="120" height="32.5" as="geometry" />
        </mxCell>
        <mxCell id="GJOkn2DgcXXOF6PlL42Y-67" value="POST edit-threshold" style="swimlane;fontStyle=0;childLayout=stackLayout;horizontal=1;startSize=30;horizontalStack=0;resizeParent=1;resizeParentMax=0;resizeLast=0;collapsible=1;marginBottom=0;rounded=1;" parent="GJOkn2DgcXXOF6PlL42Y-3" vertex="1">
          <mxGeometry x="22.5" y="29.959999999999994" width="232.5" height="120" as="geometry" />
        </mxCell>
        <mxCell id="GJOkn2DgcXXOF6PlL42Y-68" value="RQ: deviceID+InputID" style="text;strokeColor=none;fillColor=none;align=left;verticalAlign=middle;spacingLeft=4;spacingRight=4;overflow=hidden;points=[[0,0.5],[1,0.5]];portConstraint=eastwest;rotatable=0;rounded=1;" parent="GJOkn2DgcXXOF6PlL42Y-67" vertex="1">
          <mxGeometry y="30" width="232.5" height="30" as="geometry" />
        </mxCell>
        <mxCell id="GJOkn2DgcXXOF6PlL42Y-69" value="Body:cat (*): threshold+duration - value" style="text;strokeColor=none;fillColor=none;align=left;verticalAlign=middle;spacingLeft=4;spacingRight=4;overflow=hidden;points=[[0,0.5],[1,0.5]];portConstraint=eastwest;rotatable=0;rounded=1;" parent="GJOkn2DgcXXOF6PlL42Y-67" vertex="1">
          <mxGeometry y="60" width="232.5" height="30" as="geometry" />
        </mxCell>
        <mxCell id="GJOkn2DgcXXOF6PlL42Y-70" value="RS: Submitted/Failed" style="text;strokeColor=none;fillColor=none;align=left;verticalAlign=middle;spacingLeft=4;spacingRight=4;overflow=hidden;points=[[0,0.5],[1,0.5]];portConstraint=eastwest;rotatable=0;rounded=1;" parent="GJOkn2DgcXXOF6PlL42Y-67" vertex="1">
          <mxGeometry y="90" width="232.5" height="30" as="geometry" />
        </mxCell>
        <mxCell id="GJOkn2DgcXXOF6PlL42Y-47" value="GET Job-Status" style="text;strokeColor=#23445d;fillColor=#bac8d3;align=left;verticalAlign=middle;spacingLeft=4;spacingRight=4;overflow=hidden;points=[[0,0.5],[1,0.5]];portConstraint=eastwest;rotatable=0;rounded=1;" parent="GJOkn2DgcXXOF6PlL42Y-3" vertex="1">
          <mxGeometry x="420" y="191.5" width="120" height="47" as="geometry" />
        </mxCell>
        <mxCell id="GJOkn2DgcXXOF6PlL42Y-41" value="GET current JobStatus" style="swimlane;fontStyle=0;childLayout=stackLayout;horizontal=1;startSize=30;horizontalStack=0;resizeParent=1;resizeParentMax=0;resizeLast=0;collapsible=1;marginBottom=0;rounded=1;" parent="GJOkn2DgcXXOF6PlL42Y-3" vertex="1">
          <mxGeometry x="22.5" y="195.5" width="232.5" height="90" as="geometry" />
        </mxCell>
        <mxCell id="GJOkn2DgcXXOF6PlL42Y-42" value="RQ: JobId" style="text;strokeColor=none;fillColor=none;align=left;verticalAlign=middle;spacingLeft=4;spacingRight=4;overflow=hidden;points=[[0,0.5],[1,0.5]];portConstraint=eastwest;rotatable=0;rounded=1;" parent="GJOkn2DgcXXOF6PlL42Y-41" vertex="1">
          <mxGeometry y="30" width="232.5" height="30" as="geometry" />
        </mxCell>
        <mxCell id="GJOkn2DgcXXOF6PlL42Y-43" value="RS: Job Status" style="text;strokeColor=none;fillColor=none;align=left;verticalAlign=middle;spacingLeft=4;spacingRight=4;overflow=hidden;points=[[0,0.5],[1,0.5]];portConstraint=eastwest;rotatable=0;rounded=1;" parent="GJOkn2DgcXXOF6PlL42Y-41" vertex="1">
          <mxGeometry y="60" width="232.5" height="30" as="geometry" />
        </mxCell>
        <mxCell id="E4ttcaTwwPtTvKQK7SmM-26" value="" style="endArrow=classic;html=1;rounded=0;dashed=1;entryX=1;entryY=0.5;entryDx=0;entryDy=0;exitX=0;exitY=0.5;exitDx=0;exitDy=0;" edge="1" parent="GJOkn2DgcXXOF6PlL42Y-3" source="GJOkn2DgcXXOF6PlL42Y-47" target="GJOkn2DgcXXOF6PlL42Y-43">
          <mxGeometry width="50" height="50" relative="1" as="geometry">
            <mxPoint x="395" y="230.14" as="sourcePoint" />
            <mxPoint x="271" y="250.85000000000002" as="targetPoint" />
          </mxGeometry>
        </mxCell>
        <mxCell id="E4ttcaTwwPtTvKQK7SmM-27" value="Async" style="edgeLabel;html=1;align=center;verticalAlign=middle;resizable=0;points=[];" vertex="1" connectable="0" parent="E4ttcaTwwPtTvKQK7SmM-26">
          <mxGeometry x="0.1496" y="-1" relative="1" as="geometry">
            <mxPoint as="offset" />
          </mxGeometry>
        </mxCell>
        <mxCell id="E4ttcaTwwPtTvKQK7SmM-29" value="" style="endArrow=classic;html=1;rounded=0;entryX=0;entryY=0.5;entryDx=0;entryDy=0;exitX=1;exitY=0.5;exitDx=0;exitDy=0;" edge="1" parent="GJOkn2DgcXXOF6PlL42Y-3" source="GJOkn2DgcXXOF6PlL42Y-17" target="GJOkn2DgcXXOF6PlL42Y-19">
          <mxGeometry width="50" height="50" relative="1" as="geometry">
            <mxPoint x="-154" y="323" as="sourcePoint" />
            <mxPoint x="37.5" y="225" as="targetPoint" />
          </mxGeometry>
        </mxCell>
        <mxCell id="E4ttcaTwwPtTvKQK7SmM-30" value="Sync Near &lt;br&gt;real time" style="edgeLabel;html=1;align=center;verticalAlign=middle;resizable=0;points=[];" vertex="1" connectable="0" parent="E4ttcaTwwPtTvKQK7SmM-29">
          <mxGeometry x="0.0195" relative="1" as="geometry">
            <mxPoint x="-9" y="-21" as="offset" />
          </mxGeometry>
        </mxCell>
        <mxCell id="NkGoriXdBeGFRCCLlbzc-29" value="PPA-backend Service (node)" style="swimlane;rounded=1;dashed=1;fillColor=#b1ddf0;strokeColor=#10739e;swimlaneFillColor=#F5FAFF;gradientColor=#ffffff;" parent="1" vertex="1">
          <mxGeometry x="576" y="624" width="285" height="160" as="geometry" />
        </mxCell>
        <mxCell id="NkGoriXdBeGFRCCLlbzc-30" value="GET current-device-config" style="swimlane;fontStyle=0;childLayout=stackLayout;horizontal=1;startSize=30;horizontalStack=0;resizeParent=1;resizeParentMax=0;resizeLast=0;collapsible=1;marginBottom=0;rounded=1;" parent="NkGoriXdBeGFRCCLlbzc-29" vertex="1">
          <mxGeometry x="30" y="40" width="225" height="90" as="geometry" />
        </mxCell>
        <mxCell id="NkGoriXdBeGFRCCLlbzc-31" value="RQ: List&lt;deviceID&gt;" style="text;strokeColor=none;fillColor=none;align=left;verticalAlign=middle;spacingLeft=4;spacingRight=4;overflow=hidden;points=[[0,0.5],[1,0.5]];portConstraint=eastwest;rotatable=0;rounded=1;" parent="NkGoriXdBeGFRCCLlbzc-30" vertex="1">
          <mxGeometry y="30" width="225" height="30" as="geometry" />
        </mxCell>
        <mxCell id="NkGoriXdBeGFRCCLlbzc-32" value="RS: (List) threshold+duration+Status*" style="text;strokeColor=none;fillColor=none;align=left;verticalAlign=middle;spacingLeft=4;spacingRight=4;overflow=hidden;points=[[0,0.5],[1,0.5]];portConstraint=eastwest;rotatable=0;rounded=1;" parent="NkGoriXdBeGFRCCLlbzc-30" vertex="1">
          <mxGeometry y="60" width="225" height="30" as="geometry" />
        </mxCell>
        <mxCell id="GJOkn2DgcXXOF6PlL42Y-2" value="PPA-API Service (java)" style="swimlane;rounded=1;dashed=1;fillColor=#b1ddf0;strokeColor=#10739e;swimlaneFillColor=#CCE5FF;gradientColor=#ffffff;" parent="1" vertex="1">
          <mxGeometry x="576" y="60" width="277" height="180" as="geometry" />
        </mxCell>
        <mxCell id="GJOkn2DgcXXOF6PlL42Y-61" value="POST edit-threshold" style="swimlane;fontStyle=0;childLayout=stackLayout;horizontal=1;startSize=30;horizontalStack=0;resizeParent=1;resizeParentMax=0;resizeLast=0;collapsible=1;marginBottom=0;rounded=1;" parent="GJOkn2DgcXXOF6PlL42Y-2" vertex="1">
          <mxGeometry x="25.25" y="29.999999999999964" width="226.5" height="120" as="geometry" />
        </mxCell>
        <mxCell id="GJOkn2DgcXXOF6PlL42Y-62" value="RQ: deviceID+InputID" style="text;strokeColor=none;fillColor=none;align=left;verticalAlign=middle;spacingLeft=4;spacingRight=4;overflow=hidden;points=[[0,0.5],[1,0.5]];portConstraint=eastwest;rotatable=0;rounded=1;" parent="GJOkn2DgcXXOF6PlL42Y-61" vertex="1">
          <mxGeometry y="30" width="226.5" height="30" as="geometry" />
        </mxCell>
        <mxCell id="GJOkn2DgcXXOF6PlL42Y-63" value="Body: cat (*): threshold+duration - value" style="text;strokeColor=none;fillColor=none;align=left;verticalAlign=middle;spacingLeft=4;spacingRight=4;overflow=hidden;points=[[0,0.5],[1,0.5]];portConstraint=eastwest;rotatable=0;rounded=1;" parent="GJOkn2DgcXXOF6PlL42Y-61" vertex="1">
          <mxGeometry y="60" width="226.5" height="30" as="geometry" />
        </mxCell>
        <mxCell id="GJOkn2DgcXXOF6PlL42Y-66" value="RS: Submitted/Failed" style="text;strokeColor=none;fillColor=none;align=left;verticalAlign=middle;spacingLeft=4;spacingRight=4;overflow=hidden;points=[[0,0.5],[1,0.5]];portConstraint=eastwest;rotatable=0;rounded=1;" parent="GJOkn2DgcXXOF6PlL42Y-61" vertex="1">
          <mxGeometry y="90" width="226.5" height="30" as="geometry" />
        </mxCell>
        <mxCell id="NkGoriXdBeGFRCCLlbzc-5" value="PPA-CoOrdinator (java)" style="swimlane;rounded=1;dashed=1;fillColor=#b1ddf0;strokeColor=#10739e;swimlaneFillColor=#D4E1F5;gradientColor=#ffffff;" parent="1" vertex="1">
          <mxGeometry x="576" y="270" width="279" height="330" as="geometry" />
        </mxCell>
        <mxCell id="GJOkn2DgcXXOF6PlL42Y-6" value="Get Job-Status" style="swimlane;fontStyle=0;childLayout=stackLayout;horizontal=1;startSize=30;horizontalStack=0;resizeParent=1;resizeParentMax=0;resizeLast=0;collapsible=1;marginBottom=0;rounded=1;" parent="NkGoriXdBeGFRCCLlbzc-5" vertex="1">
          <mxGeometry x="23.5" y="52" width="221.5" height="120" as="geometry" />
        </mxCell>
        <mxCell id="GJOkn2DgcXXOF6PlL42Y-7" value="RQ: JobID" style="text;strokeColor=none;fillColor=none;align=left;verticalAlign=middle;spacingLeft=4;spacingRight=4;overflow=hidden;points=[[0,0.5],[1,0.5]];portConstraint=eastwest;rotatable=0;rounded=1;" parent="GJOkn2DgcXXOF6PlL42Y-6" vertex="1">
          <mxGeometry y="30" width="221.5" height="30" as="geometry" />
        </mxCell>
        <mxCell id="GJOkn2DgcXXOF6PlL42Y-8" value="RS: Job Status" style="text;strokeColor=none;fillColor=none;align=left;verticalAlign=middle;spacingLeft=4;spacingRight=4;overflow=hidden;points=[[0,0.5],[1,0.5]];portConstraint=eastwest;rotatable=0;rounded=1;" parent="GJOkn2DgcXXOF6PlL42Y-6" vertex="1">
          <mxGeometry y="60" width="221.5" height="30" as="geometry" />
        </mxCell>
        <mxCell id="NkGoriXdBeGFRCCLlbzc-47" value="Persist-Change" style="text;strokeColor=none;fillColor=none;align=left;verticalAlign=middle;spacingLeft=4;spacingRight=4;overflow=hidden;points=[[0,0.5],[1,0.5]];portConstraint=eastwest;rotatable=0;rounded=1;" parent="GJOkn2DgcXXOF6PlL42Y-6" vertex="1">
          <mxGeometry y="90" width="221.5" height="30" as="geometry" />
        </mxCell>
        <mxCell id="E4ttcaTwwPtTvKQK7SmM-1" value="Get DeviceConfig- Poll/callBack" style="swimlane;fontStyle=0;childLayout=stackLayout;horizontal=1;startSize=30;horizontalStack=0;resizeParent=1;resizeParentMax=0;resizeLast=0;collapsible=1;marginBottom=0;rounded=1;" vertex="1" parent="NkGoriXdBeGFRCCLlbzc-5">
          <mxGeometry x="27.25" y="196" width="221.5" height="120" as="geometry" />
        </mxCell>
        <mxCell id="E4ttcaTwwPtTvKQK7SmM-2" value="RQ: paginate + changedSince" style="text;strokeColor=none;fillColor=none;align=left;verticalAlign=middle;spacingLeft=4;spacingRight=4;overflow=hidden;points=[[0,0.5],[1,0.5]];portConstraint=eastwest;rotatable=0;rounded=1;" vertex="1" parent="E4ttcaTwwPtTvKQK7SmM-1">
          <mxGeometry y="30" width="221.5" height="30" as="geometry" />
        </mxCell>
        <mxCell id="E4ttcaTwwPtTvKQK7SmM-3" value="RS: List&lt;DeviceConfig&gt;" style="text;strokeColor=none;fillColor=none;align=left;verticalAlign=middle;spacingLeft=4;spacingRight=4;overflow=hidden;points=[[0,0.5],[1,0.5]];portConstraint=eastwest;rotatable=0;rounded=1;" vertex="1" parent="E4ttcaTwwPtTvKQK7SmM-1">
          <mxGeometry y="60" width="221.5" height="30" as="geometry" />
        </mxCell>
        <mxCell id="E4ttcaTwwPtTvKQK7SmM-4" value="Persist-Change" style="text;strokeColor=none;fillColor=none;align=left;verticalAlign=middle;spacingLeft=4;spacingRight=4;overflow=hidden;points=[[0,0.5],[1,0.5]];portConstraint=eastwest;rotatable=0;rounded=1;" vertex="1" parent="E4ttcaTwwPtTvKQK7SmM-1">
          <mxGeometry y="90" width="221.5" height="30" as="geometry" />
        </mxCell>
        <mxCell id="GJOkn2DgcXXOF6PlL42Y-1" value="U I" style="swimlane;rounded=1;dashed=1;fillColor=#dae8fc;strokeColor=#6c8ebf;gradientColor=#ffffff;swimlaneFillColor=#D5E8D4;" parent="1" vertex="1">
          <mxGeometry x="225" y="150" width="238" height="615" as="geometry" />
        </mxCell>
        <mxCell id="GJOkn2DgcXXOF6PlL42Y-30" value="Edit threshold" style="swimlane;fontStyle=0;childLayout=stackLayout;horizontal=1;startSize=30;horizontalStack=0;resizeParent=1;resizeParentMax=0;resizeLast=0;collapsible=1;marginBottom=0;rounded=1;labelBackgroundColor=none;fillColor=#b1ddf0;strokeColor=#10739e;" parent="GJOkn2DgcXXOF6PlL42Y-1" vertex="1">
          <mxGeometry x="22" y="247" width="188" height="120" as="geometry" />
        </mxCell>
        <mxCell id="GJOkn2DgcXXOF6PlL42Y-31" value="For: deviceID+InputID" style="text;strokeColor=none;fillColor=none;align=left;verticalAlign=middle;spacingLeft=4;spacingRight=4;overflow=hidden;points=[[0,0.5],[1,0.5]];portConstraint=eastwest;rotatable=0;rounded=1;" parent="GJOkn2DgcXXOF6PlL42Y-30" vertex="1">
          <mxGeometry y="30" width="188" height="30" as="geometry" />
        </mxCell>
        <mxCell id="GJOkn2DgcXXOF6PlL42Y-32" value="cat (*): threshold+duration " style="text;strokeColor=none;fillColor=none;align=left;verticalAlign=middle;spacingLeft=4;spacingRight=4;overflow=hidden;points=[[0,0.5],[1,0.5]];portConstraint=eastwest;rotatable=0;rounded=1;" parent="GJOkn2DgcXXOF6PlL42Y-30" vertex="1">
          <mxGeometry y="60" width="188" height="30" as="geometry" />
        </mxCell>
        <mxCell id="aSXss6iqSQP3orXnk--K-1" value="upper+lower limit" style="text;strokeColor=none;fillColor=none;align=left;verticalAlign=middle;spacingLeft=4;spacingRight=4;overflow=hidden;points=[[0,0.5],[1,0.5]];portConstraint=eastwest;rotatable=0;rounded=1;" parent="GJOkn2DgcXXOF6PlL42Y-30" vertex="1">
          <mxGeometry y="90" width="188" height="30" as="geometry" />
        </mxCell>
        <mxCell id="GJOkn2DgcXXOF6PlL42Y-54" value="SUBMIT - Edit threshold" style="swimlane;fontStyle=0;childLayout=stackLayout;horizontal=1;startSize=30;horizontalStack=0;resizeParent=1;resizeParentMax=0;resizeLast=0;collapsible=1;marginBottom=0;rounded=1;labelBackgroundColor=none;fillColor=#b1ddf0;strokeColor=#10739e;" parent="GJOkn2DgcXXOF6PlL42Y-1" vertex="1">
          <mxGeometry x="21" y="82" width="196" height="90" as="geometry" />
        </mxCell>
        <mxCell id="GJOkn2DgcXXOF6PlL42Y-55" value="For: deviceID+InputID&#xa;cat (*): threshold+duration - value" style="text;strokeColor=none;fillColor=none;align=left;verticalAlign=middle;spacingLeft=4;spacingRight=4;overflow=hidden;points=[[0,0.5],[1,0.5]];portConstraint=eastwest;rotatable=0;rounded=1;" parent="GJOkn2DgcXXOF6PlL42Y-54" vertex="1">
          <mxGeometry y="30" width="196" height="30" as="geometry" />
        </mxCell>
        <mxCell id="GJOkn2DgcXXOF6PlL42Y-56" value="Response: Submitted/Failed" style="text;strokeColor=none;fillColor=none;align=left;verticalAlign=middle;spacingLeft=4;spacingRight=4;overflow=hidden;points=[[0,0.5],[1,0.5]];portConstraint=eastwest;rotatable=0;rounded=1;" parent="GJOkn2DgcXXOF6PlL42Y-54" vertex="1">
          <mxGeometry y="60" width="196" height="30" as="geometry" />
        </mxCell>
        <mxCell id="GJOkn2DgcXXOF6PlL42Y-58" value="" style="endArrow=classic;html=1;rounded=0;entryX=0.483;entryY=0.96;entryDx=0;entryDy=0;entryPerimeter=0;exitX=0.5;exitY=0;exitDx=0;exitDy=0;" parent="GJOkn2DgcXXOF6PlL42Y-1" edge="1">
          <mxGeometry width="50" height="50" relative="1" as="geometry">
            <mxPoint x="106" y="247" as="sourcePoint" />
            <mxPoint x="105.66800000000012" y="170.80000000000018" as="targetPoint" />
          </mxGeometry>
        </mxCell>
        <mxCell id="E4ttcaTwwPtTvKQK7SmM-6" value="" style="endArrow=classic;html=1;rounded=0;exitX=0.423;exitY=-0.022;exitDx=0;exitDy=0;exitPerimeter=0;dashed=1;entryX=0.447;entryY=0.967;entryDx=0;entryDy=0;entryPerimeter=0;" edge="1" parent="GJOkn2DgcXXOF6PlL42Y-1" source="GJOkn2DgcXXOF6PlL42Y-12" target="aSXss6iqSQP3orXnk--K-1">
          <mxGeometry width="50" height="50" relative="1" as="geometry">
            <mxPoint x="120" y="322" as="sourcePoint" />
            <mxPoint x="105" y="247" as="targetPoint" />
          </mxGeometry>
        </mxCell>
        <mxCell id="GJOkn2DgcXXOF6PlL42Y-12" value="Display Current threshold" style="swimlane;fontStyle=0;childLayout=stackLayout;horizontal=1;startSize=30;horizontalStack=0;resizeParent=1;resizeParentMax=0;resizeLast=0;collapsible=1;marginBottom=0;rounded=1;labelBackgroundColor=none;fillColor=#b1ddf0;strokeColor=#10739e;" parent="GJOkn2DgcXXOF6PlL42Y-1" vertex="1">
          <mxGeometry x="30" y="476" width="180" height="90" as="geometry" />
        </mxCell>
        <mxCell id="GJOkn2DgcXXOF6PlL42Y-13" value="For: List&lt;deviceID&gt;" style="text;strokeColor=none;fillColor=none;align=left;verticalAlign=middle;spacingLeft=4;spacingRight=4;overflow=hidden;points=[[0,0.5],[1,0.5]];portConstraint=eastwest;rotatable=0;rounded=1;" parent="GJOkn2DgcXXOF6PlL42Y-12" vertex="1">
          <mxGeometry y="30" width="180" height="30" as="geometry" />
        </mxCell>
        <mxCell id="GJOkn2DgcXXOF6PlL42Y-14" value="Display:high; psi:56; dur: 5 mins" style="text;strokeColor=none;fillColor=none;align=left;verticalAlign=middle;spacingLeft=4;spacingRight=4;overflow=hidden;points=[[0,0.5],[1,0.5]];portConstraint=eastwest;rotatable=0;rounded=1;" parent="GJOkn2DgcXXOF6PlL42Y-12" vertex="1">
          <mxGeometry y="60" width="180" height="30" as="geometry" />
        </mxCell>
        <mxCell id="GJOkn2DgcXXOF6PlL42Y-5" value="PPA &lt;br&gt;User" style="shape=umlActor;verticalLabelPosition=bottom;verticalAlign=top;html=1;outlineConnect=0;rounded=1;" parent="1" vertex="1">
          <mxGeometry x="30" y="453" width="45" height="97" as="geometry" />
        </mxCell>
        <mxCell id="GJOkn2DgcXXOF6PlL42Y-109" value="" style="endArrow=classic;html=1;rounded=0;entryX=1;entryY=0.5;entryDx=0;entryDy=0;exitX=0;exitY=0.5;exitDx=0;exitDy=0;" parent="1" source="GJOkn2DgcXXOF6PlL42Y-63" target="GJOkn2DgcXXOF6PlL42Y-56" edge="1">
          <mxGeometry width="50" height="50" relative="1" as="geometry">
            <mxPoint x="551" y="338.90999999999997" as="sourcePoint" />
            <mxPoint x="445" y="281.90999999999997" as="targetPoint" />
          </mxGeometry>
        </mxCell>
        <mxCell id="GJOkn2DgcXXOF6PlL42Y-108" value="" style="endArrow=classic;html=1;rounded=0;entryX=0;entryY=0.5;entryDx=0;entryDy=0;exitX=1;exitY=0.5;exitDx=0;exitDy=0;" parent="1" source="GJOkn2DgcXXOF6PlL42Y-55" target="GJOkn2DgcXXOF6PlL42Y-62" edge="1">
          <mxGeometry width="50" height="50" relative="1" as="geometry">
            <mxPoint x="445" y="251.90999999999997" as="sourcePoint" />
            <mxPoint x="551" y="308.90999999999997" as="targetPoint" />
          </mxGeometry>
        </mxCell>
        <mxCell id="NkGoriXdBeGFRCCLlbzc-1" value="View &lt;br&gt;thresholds" style="endArrow=classic;html=1;rounded=0;entryX=0;entryY=0.5;entryDx=0;entryDy=0;" parent="1" source="GJOkn2DgcXXOF6PlL42Y-5" target="GJOkn2DgcXXOF6PlL42Y-13" edge="1">
          <mxGeometry x="-0.1872" y="-1" width="50" height="50" relative="1" as="geometry">
            <mxPoint x="135" y="525" as="sourcePoint" />
            <mxPoint x="225" y="435" as="targetPoint" />
            <mxPoint as="offset" />
          </mxGeometry>
        </mxCell>
        <mxCell id="TNVdTlEFQuvaBfnlJwtW-5" value="&lt;b&gt;1.2&lt;/b&gt;" style="ellipse;whiteSpace=wrap;html=1;gradientColor=#ffffff;fillColor=#3399FF;" parent="1" vertex="1">
          <mxGeometry x="500" y="150" width="45" height="30" as="geometry" />
        </mxCell>
        <mxCell id="NkGoriXdBeGFRCCLlbzc-13" value="&lt;b&gt;1.1&lt;/b&gt;" style="ellipse;whiteSpace=wrap;html=1;gradientColor=#ffffff;fillColor=#3399FF;" parent="1" vertex="1">
          <mxGeometry x="500" y="652" width="45" height="30" as="geometry" />
        </mxCell>
        <mxCell id="NkGoriXdBeGFRCCLlbzc-46" style="edgeStyle=orthogonalEdgeStyle;rounded=0;orthogonalLoop=1;jettySize=auto;html=1;exitX=0.5;exitY=1;exitDx=0;exitDy=0;exitPerimeter=0;entryX=1;entryY=0.5;entryDx=0;entryDy=0;" parent="1" source="NkGoriXdBeGFRCCLlbzc-15" target="NkGoriXdBeGFRCCLlbzc-32" edge="1">
          <mxGeometry relative="1" as="geometry">
            <mxPoint x="883" y="510" as="targetPoint" />
            <mxPoint x="907" y="633" as="sourcePoint" />
            <Array as="points">
              <mxPoint x="1005" y="739" />
            </Array>
          </mxGeometry>
        </mxCell>
        <mxCell id="NkGoriXdBeGFRCCLlbzc-15" value="PPA App DB" style="shape=cylinder3;whiteSpace=wrap;html=1;boundedLbl=1;backgroundOutline=1;size=7;" parent="1" vertex="1">
          <mxGeometry x="945" y="595" width="120" height="57" as="geometry" />
        </mxCell>
        <mxCell id="NkGoriXdBeGFRCCLlbzc-27" value="&lt;b&gt;2.1&lt;/b&gt;" style="ellipse;whiteSpace=wrap;html=1;gradientColor=#ffffff;fillColor=#3399FF;" parent="1" vertex="1">
          <mxGeometry x="925" y="435" width="45" height="30" as="geometry" />
        </mxCell>
        <mxCell id="NkGoriXdBeGFRCCLlbzc-28" value="&lt;b&gt;2.2&lt;/b&gt;" style="ellipse;whiteSpace=wrap;html=1;gradientColor=#ffffff;fillColor=#3399FF;" parent="1" vertex="1">
          <mxGeometry x="925" y="270" width="45" height="30" as="geometry" />
        </mxCell>
        <mxCell id="NkGoriXdBeGFRCCLlbzc-37" value="" style="endArrow=classic;html=1;rounded=0;entryX=0;entryY=0.5;entryDx=0;entryDy=0;exitX=1;exitY=0.5;exitDx=0;exitDy=0;" parent="1" source="GJOkn2DgcXXOF6PlL42Y-13" target="NkGoriXdBeGFRCCLlbzc-31" edge="1">
          <mxGeometry width="50" height="50" relative="1" as="geometry">
            <mxPoint x="414.5" y="498.90999999999985" as="sourcePoint" />
            <mxPoint x="539" y="465" as="targetPoint" />
          </mxGeometry>
        </mxCell>
        <mxCell id="NkGoriXdBeGFRCCLlbzc-39" value="" style="endArrow=classic;html=1;rounded=0;entryX=1;entryY=0.5;entryDx=0;entryDy=0;exitX=0;exitY=0.5;exitDx=0;exitDy=0;" parent="1" source="NkGoriXdBeGFRCCLlbzc-32" target="GJOkn2DgcXXOF6PlL42Y-14" edge="1">
          <mxGeometry width="50" height="50" relative="1" as="geometry">
            <mxPoint x="562.5" y="510" as="sourcePoint" />
            <mxPoint x="438" y="543.9099999999999" as="targetPoint" />
          </mxGeometry>
        </mxCell>
        <mxCell id="GJOkn2DgcXXOF6PlL42Y-27" value="Edit threshold&lt;br&gt;per Input" style="endArrow=classic;html=1;rounded=0;entryX=0;entryY=0.5;entryDx=0;entryDy=0;" parent="1" target="GJOkn2DgcXXOF6PlL42Y-31" edge="1">
          <mxGeometry x="-0.1928" y="-2" width="50" height="50" relative="1" as="geometry">
            <mxPoint x="75" y="495" as="sourcePoint" />
            <mxPoint x="179" y="130" as="targetPoint" />
            <Array as="points" />
            <mxPoint as="offset" />
          </mxGeometry>
        </mxCell>
        <mxCell id="GJOkn2DgcXXOF6PlL42Y-118" value="" style="endArrow=classic;html=1;rounded=0;entryX=0;entryY=0.5;entryDx=0;entryDy=0;exitX=1;exitY=0.5;exitDx=0;exitDy=0;" parent="1" source="GJOkn2DgcXXOF6PlL42Y-62" target="GJOkn2DgcXXOF6PlL42Y-68" edge="1">
          <mxGeometry width="50" height="50" relative="1" as="geometry">
            <mxPoint x="914.5" y="165.05" as="sourcePoint" />
            <mxPoint x="1057" y="184.45999999999998" as="targetPoint" />
          </mxGeometry>
        </mxCell>
        <mxCell id="GJOkn2DgcXXOF6PlL42Y-119" value="" style="endArrow=classic;html=1;rounded=0;entryX=1;entryY=0.5;entryDx=0;entryDy=0;exitX=0;exitY=0.5;exitDx=0;exitDy=0;" parent="1" source="GJOkn2DgcXXOF6PlL42Y-70" target="GJOkn2DgcXXOF6PlL42Y-66" edge="1">
          <mxGeometry width="50" height="50" relative="1" as="geometry">
            <mxPoint x="1057" y="214.45999999999998" as="sourcePoint" />
            <mxPoint x="914.5" y="195.05" as="targetPoint" />
          </mxGeometry>
        </mxCell>
        <mxCell id="E4ttcaTwwPtTvKQK7SmM-8" value="" style="endArrow=classic;html=1;rounded=0;entryX=0;entryY=0.5;entryDx=0;entryDy=0;exitX=1;exitY=0.5;exitDx=0;exitDy=0;" edge="1" parent="1" source="GJOkn2DgcXXOF6PlL42Y-7" target="GJOkn2DgcXXOF6PlL42Y-42">
          <mxGeometry width="50" height="50" relative="1" as="geometry">
            <mxPoint x="825" y="360" as="sourcePoint" />
            <mxPoint x="1188.75" y="360" as="targetPoint" />
          </mxGeometry>
        </mxCell>
        <mxCell id="E4ttcaTwwPtTvKQK7SmM-16" value="poll 30 &lt;br&gt;mins" style="edgeLabel;html=1;align=center;verticalAlign=middle;resizable=0;points=[];" vertex="1" connectable="0" parent="E4ttcaTwwPtTvKQK7SmM-8">
          <mxGeometry x="0.0195" relative="1" as="geometry">
            <mxPoint x="19" y="-3" as="offset" />
          </mxGeometry>
        </mxCell>
        <mxCell id="E4ttcaTwwPtTvKQK7SmM-10" value="" style="endArrow=classic;html=1;rounded=0;entryX=0;entryY=0.5;entryDx=0;entryDy=0;exitX=1;exitY=0.5;exitDx=0;exitDy=0;" edge="1" parent="1" source="E4ttcaTwwPtTvKQK7SmM-2" target="GJOkn2DgcXXOF6PlL42Y-17">
          <mxGeometry width="50" height="50" relative="1" as="geometry">
            <mxPoint x="819.75" y="517" as="sourcePoint" />
            <mxPoint x="1190.25" y="420" as="targetPoint" />
          </mxGeometry>
        </mxCell>
        <mxCell id="E4ttcaTwwPtTvKQK7SmM-17" value="Sync near&lt;br&gt;realtime" style="edgeLabel;html=1;align=center;verticalAlign=middle;resizable=0;points=[];" vertex="1" connectable="0" parent="E4ttcaTwwPtTvKQK7SmM-10">
          <mxGeometry x="0.1625" y="-1" relative="1" as="geometry">
            <mxPoint x="13" y="1" as="offset" />
          </mxGeometry>
        </mxCell>
        <mxCell id="E4ttcaTwwPtTvKQK7SmM-11" value="" style="endArrow=classic;html=1;rounded=0;entryX=1;entryY=0.5;entryDx=0;entryDy=0;exitX=0;exitY=0.5;exitDx=0;exitDy=0;" edge="1" parent="1" source="GJOkn2DgcXXOF6PlL42Y-18" target="E4ttcaTwwPtTvKQK7SmM-3">
          <mxGeometry width="50" height="50" relative="1" as="geometry">
            <mxPoint x="1190.25" y="465" as="sourcePoint" />
            <mxPoint x="819.75" y="562" as="targetPoint" />
          </mxGeometry>
        </mxCell>
        <mxCell id="E4ttcaTwwPtTvKQK7SmM-12" style="edgeStyle=orthogonalEdgeStyle;rounded=0;orthogonalLoop=1;jettySize=auto;html=1;exitX=1;exitY=0.5;exitDx=0;exitDy=0;entryX=0;entryY=0;entryDx=0;entryDy=39.25;entryPerimeter=0;" edge="1" parent="1" source="E4ttcaTwwPtTvKQK7SmM-4" target="NkGoriXdBeGFRCCLlbzc-15">
          <mxGeometry relative="1" as="geometry">
            <mxPoint x="846" y="754" as="targetPoint" />
            <mxPoint x="1020" y="667" as="sourcePoint" />
            <Array as="points">
              <mxPoint x="885" y="571" />
              <mxPoint x="885" y="634" />
            </Array>
          </mxGeometry>
        </mxCell>
        <mxCell id="E4ttcaTwwPtTvKQK7SmM-13" style="edgeStyle=orthogonalEdgeStyle;rounded=0;orthogonalLoop=1;jettySize=auto;html=1;exitX=1;exitY=0.5;exitDx=0;exitDy=0;entryX=0;entryY=0;entryDx=0;entryDy=17.75;entryPerimeter=0;" edge="1" parent="1" source="NkGoriXdBeGFRCCLlbzc-47" target="NkGoriXdBeGFRCCLlbzc-15">
          <mxGeometry relative="1" as="geometry">
            <mxPoint x="1035" y="585" as="targetPoint" />
            <mxPoint x="825" y="423.97" as="sourcePoint" />
            <Array as="points">
              <mxPoint x="821" y="424" />
              <mxPoint x="900" y="424" />
              <mxPoint x="900" y="613" />
            </Array>
          </mxGeometry>
        </mxCell>
        <mxCell id="E4ttcaTwwPtTvKQK7SmM-18" value="&lt;b&gt;2.3&lt;/b&gt;" style="ellipse;whiteSpace=wrap;html=1;gradientColor=#ffffff;fillColor=#3399FF;" vertex="1" parent="1">
          <mxGeometry x="915" y="90" width="45" height="30" as="geometry" />
        </mxCell>
        <mxCell id="E4ttcaTwwPtTvKQK7SmM-19" value="" style="endArrow=classic;html=1;rounded=0;exitX=1;exitY=0.5;exitDx=0;exitDy=0;dashed=1;entryX=0;entryY=0.5;entryDx=0;entryDy=0;" edge="1" parent="1" source="GJOkn2DgcXXOF6PlL42Y-68" target="GJOkn2DgcXXOF6PlL42Y-71">
          <mxGeometry width="50" height="50" relative="1" as="geometry">
            <mxPoint x="345.1400000000001" y="539.02" as="sourcePoint" />
            <mxPoint x="346.03600000000006" y="455.01" as="targetPoint" />
          </mxGeometry>
        </mxCell>
        <mxCell id="E4ttcaTwwPtTvKQK7SmM-21" value="Store &lt;br&gt;+ Fwd" style="edgeLabel;html=1;align=center;verticalAlign=middle;resizable=0;points=[];" vertex="1" connectable="0" parent="E4ttcaTwwPtTvKQK7SmM-19">
          <mxGeometry x="-0.1922" y="2" relative="1" as="geometry">
            <mxPoint x="-1" y="2" as="offset" />
          </mxGeometry>
        </mxCell>
        <mxCell id="E4ttcaTwwPtTvKQK7SmM-20" value="" style="endArrow=classic;html=1;rounded=0;dashed=1;entryX=1;entryY=0.5;entryDx=0;entryDy=0;exitX=0;exitY=0.5;exitDx=0;exitDy=0;" edge="1" parent="1" source="GJOkn2DgcXXOF6PlL42Y-71" target="GJOkn2DgcXXOF6PlL42Y-70">
          <mxGeometry width="50" height="50" relative="1" as="geometry">
            <mxPoint x="1365" y="165" as="sourcePoint" />
            <mxPoint x="361.03600000000006" y="470.01" as="targetPoint" />
          </mxGeometry>
        </mxCell>
        <mxCell id="E4ttcaTwwPtTvKQK7SmM-22" value="Async" style="edgeLabel;html=1;align=center;verticalAlign=middle;resizable=0;points=[];" vertex="1" connectable="0" parent="E4ttcaTwwPtTvKQK7SmM-20">
          <mxGeometry x="0.1496" y="-1" relative="1" as="geometry">
            <mxPoint as="offset" />
          </mxGeometry>
        </mxCell>
        <mxCell id="E4ttcaTwwPtTvKQK7SmM-23" value="" style="endArrow=classic;html=1;rounded=0;exitX=1;exitY=0.5;exitDx=0;exitDy=0;dashed=1;" edge="1" parent="1" source="GJOkn2DgcXXOF6PlL42Y-42">
          <mxGeometry width="50" height="50" relative="1" as="geometry">
            <mxPoint x="1245" y="270.00000000000006" as="sourcePoint" />
            <mxPoint x="1410" y="270" as="targetPoint" />
          </mxGeometry>
        </mxCell>
        <mxCell id="E4ttcaTwwPtTvKQK7SmM-24" value="Store + Fwd&lt;br&gt;1 hr" style="edgeLabel;html=1;align=center;verticalAlign=middle;resizable=0;points=[];" vertex="1" connectable="0" parent="E4ttcaTwwPtTvKQK7SmM-23">
          <mxGeometry x="-0.1922" y="2" relative="1" as="geometry">
            <mxPoint x="-1" y="1" as="offset" />
          </mxGeometry>
        </mxCell>
        <mxCell id="E4ttcaTwwPtTvKQK7SmM-9" value="" style="endArrow=classic;html=1;rounded=0;entryX=1;entryY=0.5;entryDx=0;entryDy=0;exitX=0;exitY=0.5;exitDx=0;exitDy=0;" edge="1" parent="1" source="GJOkn2DgcXXOF6PlL42Y-43" target="GJOkn2DgcXXOF6PlL42Y-8">
          <mxGeometry width="50" height="50" relative="1" as="geometry">
            <mxPoint x="1186.88" y="417.5" as="sourcePoint" />
            <mxPoint x="823.13" y="417.53999999999996" as="targetPoint" />
          </mxGeometry>
        </mxCell>
        <mxCell id="E4ttcaTwwPtTvKQK7SmM-31" value="" style="endArrow=classic;html=1;rounded=0;entryX=1;entryY=0.5;entryDx=0;entryDy=0;" edge="1" parent="1" target="GJOkn2DgcXXOF6PlL42Y-18">
          <mxGeometry width="50" height="50" relative="1" as="geometry">
            <mxPoint x="1410" y="390" as="sourcePoint" />
            <mxPoint x="836" y="412" as="targetPoint" />
          </mxGeometry>
        </mxCell>
      </root>
    </mxGraphModel>
  </diagram>
</mxfile>
